<?xml version="1.0" encoding="iso-8859-1"?>
<!-- Generator: Adobe Illustrator 16.0.0, SVG Export Plug-In . SVG Version: 6.00 Build 0)  -->
<!DOCTYPE svg PUBLIC "-//W3C//DTD SVG 1.1//EN" "http://www.w3.org/Graphics/SVG/1.1/DTD/svg11.dtd">
<svg version="1.1" id="Capa_1" xmlns="http://www.w3.org/2000/svg" xmlns:xlink="http://www.w3.org/1999/xlink" x="0px" y="0px"
	 width="589.943px" height="589.943px" viewBox="0 0 589.943 589.943" style="enable-background:new 0 0 589.943 589.943;"
	 xml:space="preserve">
<g>
	<path d="M329.336,178.386l83.109,83.109L261.464,412.476l-83.109-83.11L329.336,178.386z M1.365,490.078
		c-3.733,8.262,0.489,17.87,9.058,20.808l136.354,46.145L25.783,436.038L1.365,490.078z M246.287,427.592l-96.084-96.084
		c-3.55-3.55-8.262-5.386-12.975-5.386c-3.06,0-6.12,0.734-8.935,2.325l-94.187,52.571c-10.649,5.937-12.668,20.379-4.039,29.009
		l149.817,149.817c3.672,3.672,8.323,5.386,12.975,5.386c6.609,0,13.158-3.55,16.463-10.099l49.083-97.613
		c3.549-7.1,2.203-15.606-3.427-21.236L246.287,427.592z M579.521,79.119L443.168,32.975L564.16,153.967l24.419-54.04
		C592.312,91.665,588.09,81.996,579.521,79.119z M409.997,30.098c-3.672-3.672-8.323-5.386-12.974-5.386
		c-6.61,0-13.158,3.55-16.463,10.098l-49.083,97.614c-3.55,7.099-2.203,15.606,3.428,21.236L439.68,258.435
		c3.549,3.55,8.262,5.386,12.974,5.386c3.061,0,6.12-0.734,8.936-2.326l94.126-52.571c10.648-5.937,12.668-20.379,4.039-29.009
		L409.997,30.098z"/>
</g>
<g>
</g>
<g>
</g>
<g>
</g>
<g>
</g>
<g>
</g>
<g>
</g>
<g>
</g>
<g>
</g>
<g>
</g>
<g>
</g>
<g>
</g>
<g>
</g>
<g>
</g>
<g>
</g>
<g>
</g>
</svg>
