<?xml version="1.0" encoding="iso-8859-1"?>
<!-- Generator: Adobe Illustrator 16.0.0, SVG Export Plug-In . SVG Version: 6.00 Build 0)  -->
<!DOCTYPE svg PUBLIC "-//W3C//DTD SVG 1.1//EN" "http://www.w3.org/Graphics/SVG/1.1/DTD/svg11.dtd">
<svg version="1.1" id="Capa_1" xmlns="http://www.w3.org/2000/svg" xmlns:xlink="http://www.w3.org/1999/xlink" x="0px" y="0px"
	 width="916.432px" height="916.432px" viewBox="0 0 916.432 916.432" style="enable-background:new 0 0 916.432 916.432;"
	 xml:space="preserve">
<g>
	<g>
		<path d="M701.966,327.416c-8.899-26-31.2-45.8-58.7-51c-21.3-63.9-81.699-110-152.8-110c-72.4,0-133.701,47.8-153.9,113.6
			c-12.601-3.2-25.9-4.8-39.5-4.8c-72.4,0-133.601,47.5-153.9,113.5h638.6c-7.5-35-38.5-61.4-75.8-61.4
			C704.666,327.316,703.266,327.316,701.966,327.416z"/>
		<path d="M825.166,447.116c-4.9-14.101-18.2-23.4-33.1-23.4h-10.9H136.565h-12.5c-14.9,0-28.2,9.3-33.1,23.4l-89,256.399
			c-7.9,22.7,9,46.5,33.1,46.5h846.301c24.1,0,41-23.8,33.1-46.5L825.166,447.116z M671.166,631.815c0,30.5-24.7,55-55.2,55
			c-24.1,0-44.5-15.1-52.1-37.1h-208.5c-7.601,22-28,37.1-52.101,37.1c-30.5,0-55.2-24.6-55.2-55.1c0-14.8,5.9-28.2,15.4-38.1
			c0.8-0.801,1.6-1.601,2.4-2.4c-10.8-10.1-17.7-24.5-17.7-40.6c0-30.5,24.7-55,55.2-55c24.1,0,44.5,15.1,52.1,37.1h208.5
			c7.601-22,28-37.1,52.101-37.1c30.5,0,55.199,24.6,55.199,55.1c0,16-6.899,30.4-17.8,40.5
			C664.266,601.315,671.166,615.716,671.166,631.815z"/>
	</g>
</g>
<g>
</g>
<g>
</g>
<g>
</g>
<g>
</g>
<g>
</g>
<g>
</g>
<g>
</g>
<g>
</g>
<g>
</g>
<g>
</g>
<g>
</g>
<g>
</g>
<g>
</g>
<g>
</g>
<g>
</g>
</svg>
