<svg id="Layer_3" enable-background="new 0 0 64 64" height="512" viewBox="0 0 64 64" width="512" xmlns="http://www.w3.org/2000/svg"><g><path d="m5 12c-1.984 5.29-3 10.894-3 16.544v29.456c0 2.209 1.791 4 4 4h36c2.209 0 4-1.791 4-4v-29.456c0-5.65-1.016-11.254-3-16.544" fill="#f2c351"/><path d="m27.131 12h-22.131c-1.984 5.29-3 10.894-3 16.544v11.089c13.283-2.866 23.51-13.928 25.131-27.633z" fill="#f7d881"/><circle cx="24" cy="28" fill="#758190" r="12"/><path d="m26.348 16.233c-.759-.151-1.544-.233-2.348-.233-6.627 0-12 5.373-12 12 0 2.35.686 4.535 1.853 6.386 6.073-4.335 10.581-10.721 12.495-18.153z" fill="#8892a0"/><path d="m41.887 45.937c-.424-1.989-2.091-3.572-4.101-3.878-2.022-.308-3.86.597-4.899 2.098-.768 1.109-1.965 1.843-3.313 1.843h-11.148c-1.349 0-2.546-.734-3.313-1.843-1.039-1.501-2.877-2.405-4.899-2.098-2.01.306-3.678 1.889-4.101 3.878-.328 1.545.083 2.969.91 4.063-.827 1.094-1.238 2.518-.909 4.063.424 1.989 2.091 3.572 4.101 3.878 2.022.308 3.86-.597 4.899-2.098.767-1.109 1.964-1.843 3.312-1.843h11.147c1.349 0 2.546.734 3.313 1.843 1.039 1.501 2.877 2.405 4.899 2.098 2.01-.306 3.678-1.889 4.101-3.878.329-1.545-.083-2.969-.909-4.063.827-1.094 1.238-2.518.91-4.063z" fill="#e7e4dd"/><path d="m43 8h-38c-1.105 0-2-.895-2-2v-3c0-.552.448-1 1-1h40c.552 0 1 .448 1 1v3c0 1.105-.895 2-2 2z" fill="#f2c351"/><path d="m5 8h38v4h-38z" fill="#758190"/><g><path d="m21.729 24.602c-.675 0-1.407-.334-1.973-.967-.397-.444-.658-.981-.733-1.511-.095-.669.108-1.283.558-1.686.451-.402 1.083-.535 1.737-.367.519.134 1.023.453 1.42.897s.658.981.734 1.511c.095.669-.108 1.283-.558 1.686-.33.295-.746.437-1.185.437z" fill="#e7e4dd"/></g><g><path d="m26.271 24.602c-.44 0-.855-.142-1.185-.437-.45-.402-.653-1.017-.558-1.686.076-.53.336-1.067.734-1.511.397-.444.901-.763 1.42-.897.656-.168 1.288-.036 1.737.367s.653 1.017.558 1.686c-.076.53-.336 1.067-.733 1.511-.567.632-1.299.967-1.973.967z" fill="#e7e4dd"/></g><g><path d="m30.231 29.152c-.483 0-.935-.166-1.275-.506-.426-.426-.595-1.051-.462-1.714.105-.525.395-1.046.816-1.468.992-.991 2.39-1.146 3.183-.354.793.793.638 2.191-.354 3.182-.566.566-1.264.86-1.908.86zm.502-2.283c-.003.003-.006.006-.009.009s-.006.005-.009.008l.009-.009s.006-.005.009-.008z" fill="#e7e4dd"/></g><g><path d="m17.768 29.152c-.643 0-1.341-.293-1.908-.859-.991-.991-1.146-2.389-.354-3.182.794-.792 2.191-.637 3.183.354.421.422.711.943.816 1.468.133.663-.036 1.288-.463 1.714-.34.339-.792.505-1.274.505zm-.503-2.283.009.009.009.009c-.003-.003-.006-.006-.009-.009s-.006-.006-.009-.009z" fill="#e7e4dd"/></g><path d="m26.982 29.178c.004-.06.018-.117.018-.178 0-1.657-1.343-3-3-3s-3 1.343-3 3c0 .061.014.118.018.178-1.172.408-2.018 1.511-2.018 2.822 0 1.657 1.343 3 3 3 .772 0 1.468-.3 2-.779.532.479 1.228.779 2 .779 1.657 0 3-1.343 3-3 0-1.311-.846-2.414-2.018-2.822z" fill="#e7e4dd"/><g><path d="m12 52.999c-3.308 0-6-2.691-6-5.999h2c0 2.205 1.794 3.999 4 3.999z" fill="#d5cec2"/></g><g><path d="m42 52.999h-2c0-2.205-1.794-3.999-4-3.999v-2c3.308 0 6 2.691 6 5.999z" fill="#d5cec2"/></g><g><path d="m7 2h2v3h-2z" fill="#f7d881"/></g><g><path d="m11 2h2v3h-2z" fill="#f7d881"/></g><g><path d="m15 2h2v3h-2z" fill="#f7d881"/></g><g><path d="m19 2h2v3h-2z" fill="#f7d881"/></g><g><path d="m23 2h2v3h-2z" fill="#f7d881"/></g><g><path d="m27 2h2v3h-2z" fill="#f7d881"/></g><g><path d="m31 2h2v3h-2z" fill="#f7d881"/></g><g><path d="m35 2h2v3h-2z" fill="#f7d881"/></g><g><path d="m39 2h2v3h-2z" fill="#f7d881"/></g><g fill="#976947"><circle cx="60" cy="60" r="2"/><circle cx="53" cy="60" r="2"/><circle cx="51" cy="53" r="2"/><circle cx="60" cy="53" r="2"/><circle cx="56" cy="47" r="2"/></g><path d="m5 12h22.131c.148-1.253.233-2.525.233-3.818 0-.061-.004-.121-.005-.182h-22.359z" fill="#8892a0"/></g></svg>